<mxfile host="app.diagrams.net" modified="2024-02-07T17:08:11.246Z" agent="Mozilla/5.0 (X11; Linux x86_64; rv:122.0) Gecko/20100101 Firefox/122.0" etag="O5NdC6N7Xn-v2Ene8n2L" version="23.1.0" type="device">
  <diagram name="Page-1" id="_T175qcXc9xuy4Di4eR1">
    <mxGraphModel dx="1114" dy="596" grid="1" gridSize="10" guides="1" tooltips="1" connect="1" arrows="1" fold="1" page="1" pageScale="1" pageWidth="850" pageHeight="1100" math="0" shadow="0">
      <root>
        <mxCell id="0" />
        <mxCell id="1" parent="0" />
        <mxCell id="P68v6DSQvIz7k56ySDKr-1" value="&lt;div&gt;&lt;font style=&quot;font-size: 14px;&quot;&gt;&lt;b&gt;Scheduler&lt;/b&gt;&lt;/font&gt;&lt;/div&gt;" style="rounded=0;whiteSpace=wrap;html=1;" parent="1" vertex="1">
          <mxGeometry x="60" y="200" width="100" height="40" as="geometry" />
        </mxCell>
        <mxCell id="P68v6DSQvIz7k56ySDKr-10" style="edgeStyle=orthogonalEdgeStyle;rounded=0;orthogonalLoop=1;jettySize=auto;html=1;exitX=0.5;exitY=1;exitDx=0;exitDy=0;entryX=0.5;entryY=0;entryDx=0;entryDy=0;" parent="1" source="P68v6DSQvIz7k56ySDKr-2" target="P68v6DSQvIz7k56ySDKr-4" edge="1">
          <mxGeometry relative="1" as="geometry">
            <Array as="points">
              <mxPoint x="280" y="270" />
              <mxPoint x="370" y="270" />
            </Array>
          </mxGeometry>
        </mxCell>
        <mxCell id="K71-hNiSRDAGY8TN-uec-6" value="await fiber" style="edgeLabel;html=1;align=center;verticalAlign=middle;resizable=0;points=[];" vertex="1" connectable="0" parent="P68v6DSQvIz7k56ySDKr-10">
          <mxGeometry x="-0.0545" y="-1" relative="1" as="geometry">
            <mxPoint x="18" y="-11" as="offset" />
          </mxGeometry>
        </mxCell>
        <mxCell id="P68v6DSQvIz7k56ySDKr-11" style="edgeStyle=orthogonalEdgeStyle;rounded=0;orthogonalLoop=1;jettySize=auto;html=1;exitX=0.5;exitY=1;exitDx=0;exitDy=0;entryX=0.5;entryY=0;entryDx=0;entryDy=0;" parent="1" source="P68v6DSQvIz7k56ySDKr-2" target="P68v6DSQvIz7k56ySDKr-3" edge="1">
          <mxGeometry relative="1" as="geometry">
            <Array as="points">
              <mxPoint x="280" y="270" />
              <mxPoint x="210" y="270" />
            </Array>
          </mxGeometry>
        </mxCell>
        <mxCell id="K71-hNiSRDAGY8TN-uec-9" value="spawn new" style="edgeLabel;html=1;align=center;verticalAlign=middle;resizable=0;points=[];" vertex="1" connectable="0" parent="P68v6DSQvIz7k56ySDKr-11">
          <mxGeometry x="0.06" y="-1" relative="1" as="geometry">
            <mxPoint x="-7" y="-9" as="offset" />
          </mxGeometry>
        </mxCell>
        <mxCell id="P68v6DSQvIz7k56ySDKr-2" value="&lt;font size=&quot;1&quot;&gt;&lt;b style=&quot;font-size: 14px;&quot;&gt;Fiber&lt;/b&gt;&lt;/font&gt;" style="rounded=0;whiteSpace=wrap;html=1;" parent="1" vertex="1">
          <mxGeometry x="230" y="200" width="100" height="40" as="geometry" />
        </mxCell>
        <mxCell id="K71-hNiSRDAGY8TN-uec-2" style="edgeStyle=orthogonalEdgeStyle;rounded=0;orthogonalLoop=1;jettySize=auto;html=1;exitX=0.5;exitY=1;exitDx=0;exitDy=0;entryX=0.5;entryY=0;entryDx=0;entryDy=0;" edge="1" parent="1" source="P68v6DSQvIz7k56ySDKr-3" target="P68v6DSQvIz7k56ySDKr-1">
          <mxGeometry relative="1" as="geometry">
            <Array as="points">
              <mxPoint x="220" y="350" />
              <mxPoint x="50" y="350" />
              <mxPoint x="50" y="180" />
              <mxPoint x="110" y="180" />
            </Array>
          </mxGeometry>
        </mxCell>
        <mxCell id="K71-hNiSRDAGY8TN-uec-8" value="run scheduler in new domain" style="edgeLabel;html=1;align=center;verticalAlign=middle;resizable=0;points=[];" vertex="1" connectable="0" parent="K71-hNiSRDAGY8TN-uec-2">
          <mxGeometry x="-0.3378" y="3" relative="1" as="geometry">
            <mxPoint x="29" y="-13" as="offset" />
          </mxGeometry>
        </mxCell>
        <mxCell id="P68v6DSQvIz7k56ySDKr-3" value="&lt;font size=&quot;1&quot;&gt;&lt;b style=&quot;font-size: 14px;&quot;&gt;Domain Manager&lt;br&gt;&lt;/b&gt;&lt;/font&gt;" style="rounded=0;whiteSpace=wrap;html=1;" parent="1" vertex="1">
          <mxGeometry x="160" y="290" width="100" height="40" as="geometry" />
        </mxCell>
        <mxCell id="P68v6DSQvIz7k56ySDKr-8" style="edgeStyle=orthogonalEdgeStyle;rounded=0;orthogonalLoop=1;jettySize=auto;html=1;exitX=0.5;exitY=1;exitDx=0;exitDy=0;entryX=0.5;entryY=0;entryDx=0;entryDy=0;" parent="1" source="P68v6DSQvIz7k56ySDKr-4" target="P68v6DSQvIz7k56ySDKr-5" edge="1">
          <mxGeometry relative="1" as="geometry" />
        </mxCell>
        <mxCell id="K71-hNiSRDAGY8TN-uec-10" value="wake up all waiters" style="edgeLabel;html=1;align=center;verticalAlign=middle;resizable=0;points=[];" vertex="1" connectable="0" parent="P68v6DSQvIz7k56ySDKr-8">
          <mxGeometry x="-0.15" y="4" relative="1" as="geometry">
            <mxPoint x="-56" as="offset" />
          </mxGeometry>
        </mxCell>
        <mxCell id="P68v6DSQvIz7k56ySDKr-4" value="&lt;font style=&quot;font-size: 14px;&quot;&gt;&lt;b&gt;Promise&lt;/b&gt;&lt;/font&gt;" style="rounded=0;whiteSpace=wrap;html=1;" parent="1" vertex="1">
          <mxGeometry x="320" y="290" width="100" height="40" as="geometry" />
        </mxCell>
        <mxCell id="P68v6DSQvIz7k56ySDKr-5" value="&lt;b&gt;CQS&lt;/b&gt;" style="rounded=0;whiteSpace=wrap;html=1;" parent="1" vertex="1">
          <mxGeometry x="320" y="370" width="100" height="40" as="geometry" />
        </mxCell>
        <mxCell id="K71-hNiSRDAGY8TN-uec-1" value="" style="endArrow=diamond;startArrow=diamond;html=1;rounded=0;exitX=1;exitY=0.5;exitDx=0;exitDy=0;entryX=0;entryY=0.5;entryDx=0;entryDy=0;startFill=1;endFill=1;" edge="1" parent="1" source="P68v6DSQvIz7k56ySDKr-1" target="P68v6DSQvIz7k56ySDKr-2">
          <mxGeometry width="50" height="50" relative="1" as="geometry">
            <mxPoint x="400" y="340" as="sourcePoint" />
            <mxPoint x="450" y="290" as="targetPoint" />
          </mxGeometry>
        </mxCell>
        <mxCell id="K71-hNiSRDAGY8TN-uec-3" value="effects" style="edgeLabel;html=1;align=center;verticalAlign=middle;resizable=0;points=[];fontSize=12;" vertex="1" connectable="0" parent="K71-hNiSRDAGY8TN-uec-1">
          <mxGeometry x="-0.3" y="1" relative="1" as="geometry">
            <mxPoint x="8" y="-9" as="offset" />
          </mxGeometry>
        </mxCell>
      </root>
    </mxGraphModel>
  </diagram>
</mxfile>
